<?xml version="1.0" standalone="no"?>
<!DOCTYPE svg PUBLIC "-//W3C//DTD SVG 1.1//EN" "http://www.w3.org/Graphics/SVG/1.1/DTD/svg11.dtd" >
<svg xmlns="http://www.w3.org/2000/svg">
<metadata></metadata>
<defs>
<font id="beynoregular" horiz-adv-x="2048" >
<font-face units-per-em="2048" ascent="2048" descent="0" />
<missing-glyph horiz-adv-x="500" />
<glyph horiz-adv-x="0" />
<glyph horiz-adv-x="682" />
<glyph unicode="A" d="M110 34q-1 10 -1 16.5t1 9.5l4 8l850 1942q6 12 15 25t45 13h10q18 0 29 -5t17 -12t8 -14t4 -11q100 -244 206 -486l430 -968q106 -244 206 -484l-2 2l8 -36q0 -34 -50 -34h-1730q-52 0 -50 34zM446 242h308h848l-576 1362z" />
<glyph unicode="B" d="M258 44v-6q0 -19 12 -28q14 -10 36 -10h914q122 0 227 48t181 130t120 189t44 227q0 76 -22 148q-22 70 -61 134t-93 118t-122 94q90 80 140 187t50 225t-43 218t-117 173t-176 115q-96 40 -208 42h-692q-44 0 -44 -44v-142q0 -22 10 -35t34 -13h678q70 0 128 -24t99 -65 t65 -98t24 -126t-25 -129t-67 -105t-100 -69t-126 -24h-820q-20 0 -34 -14t-12 -34v-1082zM492 234v704h726q68 0 129 -27t106 -75t70 -111t25 -133t-26 -136q-26 -64 -71 -114t-105 -79t-128 -29h-726z" />
<glyph unicode="C" d="M198 1022q0 142 36 273t103 245t161 208t207 160t245 103t274 37q166 0 317 -49t287 -145q24 -20 24 -44q0 -14 -4 -18l-74 -122l-20 -20t-16 -8q-14 0 -36 20q-102 70 -213 107t-233 45q-180 0 -332 -64t-263 -174t-173 -255t-62 -303q0 -172 64 -315t172 -248t251 -163 t299 -58q232 0 432 128l58 36q22 12 31 12t17 -7t18 -19l78 -126q2 -8 4 -14t2 -15t-8 -20t-24 -19q-124 -88 -274 -139t-326 -51q-142 0 -273 36t-245 103t-206 160t-159 207t-103 244t-36 272z" />
<glyph unicode="D" d="M158 42v1956v8q0 22 10 31q12 11 36 11h656q148 0 281 -36t248 -102t208 -160t159 -208t102 -246q35 -128 35 -266v-8q-1 -142 -37 -273t-104 -244t-161 -206t-208 -159t-247 -103t-276 -37h-656q-20 0 -34 8q-12 7 -12 28v6zM392 234h460q176 0 323 64t254 174t167 256 t60 310q0 176 -63 318t-171 244t-252 158t-310 56h-468v-1580z" />
<glyph unicode="E" d="M304 46v1960q0 24 12 33t34 9h1350q44 0 44 -44v-144q0 -50 -46 -50h-1154v-344h916q16 0 30 -11t14 -37v-142q0 -20 -11 -35t-33 -15h-916v-354h458h458q22 0 33 -14t11 -32v-144q0 -26 -14 -38t-30 -12h-916v-394h1146q28 0 40 -15t12 -35v-138q0 -28 -12 -39t-38 -11 h-1342q-46 0 -46 46z" />
<glyph unicode="F" d="M316 42q0 -24 11 -33t35 -9h144q24 0 37 9t13 33v862h798q22 0 34 15t12 35v144q0 24 -14 35t-32 11h-798v666h1128q24 0 37 15t13 35v138q0 28 -12 40q-14 10 -38 10h-1322q-46 0 -46 -46v-1960z" />
<glyph unicode="G" d="M186 1023q0 141 36 272t103 244t160 207t207 161t245 104t273 37q100 0 196 -20t190 -56q32 -14 76 -36t84 -47t68 -52t28 -52t-12 -43v2l-42 -72q-20 -32 -54 -32q-26 0 -52 20q-100 72 -218 112t-248 40q-116 0 -222 -30t-196 -84t-163 -129t-125 -163t-80 -186 t-28 -200q0 -164 63 -309t170 -252t250 -168t301 -61q114 0 222 36t218 92l2 486q0 34 18 50t46 16h96q30 0 48 -17t18 -49v-578q0 -38 -26 -56l-18 -12q-130 -96 -283 -147t-331 -51q-140 0 -271 36t-244 103t-206 160t-160 207t-103 245t-36 272z" />
<glyph unicode="H" d="M182 44v1960v6q0 16 10 26q12 12 34 12h146q18 0 32 -12t14 -32v-542h1212v542q0 20 13 32t35 12h140q20 0 35 -12t15 -32v-1960q0 -24 -11 -34t-39 -10h-140q-48 0 -48 44v588h-1212v-588q0 -44 -50 -44h-142q-44 0 -44 44zM418 872h606h606v354h-1212v-354z" />
<glyph unicode="I" d="M904 44v1960q0 20 12 32t32 12h146q20 0 35 -12t15 -32v-1960q0 -24 -13 -34t-37 -10h-146q-44 0 -44 44z" />
<glyph unicode="J" d="M592 184q0 22 18 40l88 92l12 4q14 12 25 12t23 -10l26 -18q14 -14 32 -26t41 -24t52 -20t67 -8q54 0 99 20t78 54t52 80t19 98v1530q0 16 9 27t31 13h148q22 0 34 -11t12 -33v-1526q0 -102 -38 -189t-103 -151t-153 -101t-188 -37q-112 0 -212 40t-164 126l-2 2 q-6 4 -6 16z" />
<glyph unicode="K" d="M350 68q-2 -68 66 -68h98q70 0 70 68v262l262 276l528 -560q20 -22 36 -34t34 -12h194l18 2q10 0 20 4t17 10t7 16t-10 22l-684 722q42 44 326 344l326 342q10 12 10 22t-7 17t-17 10t-20 5h-18h-194q-18 0 -35 -12t-35 -32l-758 -802v158l898 952q10 12 10 22t-7 16 t-17 10t-20 4l-18 2h-194q-18 0 -35 -12t-35 -34l-582 -620v812q0 30 -20 49t-48 19h-100q-34 0 -51 -20q-15 -18 -15 -42v-6v-1912z" />
<glyph unicode="L" d="M384 44v1960q0 20 12 32t34 12h144q20 0 32 -10t12 -34v-1766h1002q16 0 30 -13t14 -37v-144q0 -20 -12 -32t-32 -12h-1192q-44 0 -44 44z" />
<glyph unicode="M" d="M0 238q0 -24 38 -24h116q20 0 31 9t15 21l108 274l242 594l178 432l200 -498l-326 -782q0 -2 -1 -6t-1 -20q0 -24 38 -24h118q20 0 30 9t16 21l44 114l276 686l204 500l412 -1026l106 -274v2q8 -14 19 -23t29 -9h116q40 0 40 24l-2 16l-2 4v6l-636 1540l-2 8v-6 q-4 8 -11 18t-33 10h-74q-24 0 -32 -8l-12 -18q0 -4 -4 -8l2 2l-218 -524l-218 528l-12 18q-6 10 -32 10h-72q-26 0 -32 -8l-12 -18q-2 -2 -2 -4t-2 -4l2 2l-642 -1544q-2 -10 -2 -20zM806 1808q0 -2 2 -2l-2 6v-4z" />
<glyph unicode="N" d="M152 50q0 -20 12 -32t32 -12h934q22 0 33 15t11 35l2 144q0 22 -12 33t-32 13h-468h-466q-22 0 -34 -15t-12 -35v-146zM152 448q2 -36 44 -36h2l686 -6q20 0 32 15t12 35l2 146q0 20 -13 32t-31 12l-496 2l6 1060l1256 -1706h180h4q48 0 48 42l14 1950q0 22 -16 32 q-18 12 -36 12l-140 2q-36 0 -44 -34l-12 -1608l-1208 1628q-16 22 -44 22h-186h-6q-18 0 -29 -11q-13 -13 -13 -35z" />
<glyph unicode="O" d="M2 1024q10 434 299 723t723 301q436 -12 725 -301t299 -723q-10 -434 -299 -723t-725 -301q-434 12 -723 301t-299 723zM228 1024q8 -338 233 -564t563 -234q340 8 565 234t233 564q-8 338 -233 563t-565 235q-338 -10 -563 -235t-233 -563z" />
<glyph unicode="P" d="M280 44q-2 -44 46 -44h146q44 0 44 44v716h626q134 0 249 53t199 142t132 205t48 240q0 130 -48 246q-50 118 -134 207t-200 141q-110 50 -234 54h-16h-676q-22 0 -34 -15t-12 -33v-144q0 -20 13 -31t33 -11h676q82 0 154 -35t126 -93t84 -132t30 -151t-30 -148t-82 -127 t-122 -94t-146 -44l-294 4h-532q-20 0 -34 -13q-12 -11 -12 -30v-5v-902z" />
<glyph unicode="Q" d="M0 1024q12 -434 301 -723t723 -299q182 0 343 58t293 164l208 -208q15 -15 30 -15l30 15l102 102q18 18 18 36q0 14 -14 28l-208 208q104 132 163 293t59 341q-12 436 -301 725t-723 299q-434 -10 -723 -299t-301 -725zM226 1024q10 340 235 565t563 233q338 -8 563 -233 t235 -565q-2 -132 -43 -252t-115 -220l-108 108q-14 14 -33 12t-33 -16l-100 -100q-14 -16 -14 -32t14 -30l108 -108q-100 -76 -220 -117t-254 -41q-338 8 -563 233t-235 563z" />
<glyph unicode="R" d="M280 44q0 -44 46 -44h146q44 0 44 44v716h490l430 -716q12 -20 27 -32t35 -12h216q28 0 28 5t-4 11l-8 14q-26 48 -222 374l-222 372q106 30 195 92t154 145t100 182t35 205q0 130 -49 247t-133 206t-200 142t-248 53h-692q-44 0 -44 -44v-142q0 -22 10 -35t34 -13h690 q82 0 154 -35t126 -93t84 -132t30 -150t-30 -147t-81 -127t-120 -93t-145 -43h-830q-20 0 -34 -13q-12 -11 -12 -30v-5v-902z" />
<glyph unicode="S" d="M690 50v122v5q0 16 11 27q13 12 33 12q72 10 138 51t116 100t80 132t30 145t-28 130t-70 110t-91 106t-91 117t-70 140t-28 179q0 128 49 240t132 195t190 132t223 55q20 0 33 -12t13 -38v-126q0 -20 -13 -32t-33 -12q-74 -8 -141 -48t-119 -99t-83 -134t-31 -151 q0 -64 28 -117t70 -104t91 -105t91 -119t70 -148t28 -191q-2 -128 -50 -237t-128 -190t-186 -130t-220 -55q-20 0 -33 12q-11 10 -11 31v7z" />
<glyph unicode="T" d="M580 46v1818v70v70q0 20 13 32t33 12h790q20 0 34 -10t20 -34v-140q0 -24 -13 -39t-41 -15h-598v-1764q0 -18 -13 -32t-37 -14h-140q-20 0 -34 13t-14 33z" />
<glyph unicode="U" d="M198 826v1178q0 16 11 30t29 14h150q14 0 30 -12t16 -32v-1140q0 -134 40 -251t115 -203t184 -135t251 -49q152 0 264 49t185 136t109 203t36 250v1140q0 20 13 32t37 12h130q20 0 37 -12t17 -32v-1178q0 -182 -65 -334t-178 -262t-263 -170t-321 -60t-322 65t-263 177 t-177 263t-65 321z" />
<glyph unicode="V" d="M108 2018q0 30 50 30h146q24 0 38 -11t20 -27q20 -54 56 -144l80 -200l304 -754l226 -544l424 1056q52 128 96 242l136 344v-4q8 20 23 31t35 11h150q22 0 35 -7t13 -23q0 -8 -2 -16l-6 -18l-802 -1946q0 -4 -4 -8l4 6l-16 -24q-10 -12 -42 -12h-92q-32 0 -40 12l-14 22 q0 2 -2 4l-4 6l2 -2l-808 1942l-4 8q-2 12 -2 26z" />
<glyph unicode="W" d="M-102 1888q0 -4 2 -16l2 -6v-6l700 -1694l2 -10v8q4 -10 12 -20t36 -10h82q28 -2 34 8l14 20q0 4 4 10l-2 -2l240 574l240 -582l12 -18q8 -10 36 -12h80q28 0 34 10l14 20q2 2 2 4t2 6l-2 -2l706 1696q2 10 2 22q0 28 -40 28h-130q-20 0 -32 -10t-18 -24l-118 -300 l-266 -656l-196 -474l-220 548l358 860q0 2 1 7t1 21q0 28 -40 28h-132q-20 0 -32 -10t-18 -24l-48 -124l-302 -756l-226 -550l-454 1130l-118 300v-2q-6 16 -19 26t-33 10h-128q-42 0 -42 -28zM1262 164l2 -8v4v2q0 2 -2 2z" />
<glyph unicode="X" d="M198 6q0 6 4 12l10 18v-4l674 990l-354 522l-316 460v-4q-18 30 -18 38t10 10h204q32 0 49 -12t41 -44l520 -766l524 766h-2l24 28q10 10 20 16t22 9t26 3h204q10 -2 10 -10t-16 -38v4q-70 -98 -150 -216l-168 -244l-178 -260l-176 -262l674 -990q6 -8 8 -15t2 -12 t-22 -5h-206q-40 0 -70 44l-526 778l-262 -390q-134 -202 -262 -388q-14 -20 -32 -32t-36 -12h-208q-24 0 -24 6z" />
<glyph unicode="Y" d="M554 2039q0 -9 14 -33l690 -1106v-850q0 -28 9 -39t33 -11h148q24 0 36 11t12 39v864l-528 894h238h238q20 0 32 15t12 35v146q0 20 -12 32t-32 12h-870q-20 0 -20 -9z" />
<glyph unicode="Z" d="M184 50v-5q0 -19 13 -31q15 -14 35 -14h1588q20 0 33 15t13 35v138q0 28 -13 39t-33 11h-654h-654l1274 1576l-2 -4l8 20q2 10 2 16v154q0 24 -14 36t-36 12h-1486q-28 0 -39 -10t-11 -34v-144q0 -24 11 -37t39 -13h1220l-1290 -1578l-4 -16q-1 -4 -1 -7.5t1 -6.5v-152z M1130 438q0 -20 12 -32t32 -12h648q20 0 32 15t12 35v146q0 20 -12 32t-32 12h-646q-22 0 -32 -16q-12 -14 -14 -34v-146z" />
<glyph unicode="&#x2000;" horiz-adv-x="1024" />
<glyph unicode="&#x2001;" />
<glyph unicode="&#x2002;" horiz-adv-x="1024" />
<glyph unicode="&#x2003;" />
<glyph unicode="&#x2004;" horiz-adv-x="682" />
<glyph unicode="&#x2005;" horiz-adv-x="512" />
<glyph unicode="&#x2006;" horiz-adv-x="341" />
<glyph unicode="&#x2007;" horiz-adv-x="341" />
<glyph unicode="&#x2008;" horiz-adv-x="256" />
<glyph unicode="&#x2009;" horiz-adv-x="409" />
<glyph unicode="&#x200a;" horiz-adv-x="113" />
<glyph unicode="&#x202f;" horiz-adv-x="409" />
<glyph unicode="&#x205f;" horiz-adv-x="512" />
<glyph unicode="&#x25fc;" horiz-adv-x="1000" d="M0 0z" />
</font>
</defs>
</svg>
